Coordinates
version=1
nRows=26
nColumns=24
inDegrees=yes

Units are S.I. units (second, meters, Newtons, ...)
Angles are in degrees.

endheader
time	pelvis_tilt	pelvis_list	pelvis_rotation	pelvis_tx	pelvis_ty	pelvis_tz	hip_flexion_r	hip_adduction_r	hip_rotation_r	knee_angle_r	ankle_angle_r	subtalar_angle_r	mtp_angle_r	hip_flexion_l	hip_adduction_l	hip_rotation_l	knee_angle_l	ankle_angle_l	subtalar_angle_l	mtp_angle_l	lumbar_extension	lumbar_bending	lumbar_rotation
      3.75500000	     -9.19038487	     -9.78516059	     -4.90894866	     -1.40894497	     -0.03580378	      0.47971443	      1.78774908	     17.25927532	     21.66397720	    -14.80674833	      7.93722697	     -4.30329806	     -5.15262677	     42.25101540	    -12.14825855	     -2.64993712	    -48.24982592	     -7.24114823	     14.49415153	     26.55152756	      5.62016406	     10.86025260	      9.98679728
      3.76000000	     -9.28739752	     -9.68543145	     -5.20575163	     -1.40216655	     -0.03633007	      0.47959850	      1.32767407	     17.07400486	     21.82520403	    -14.70848345	      8.07531471	     -4.03268834	     -4.96715008	     42.48678472	    -12.16615351	     -2.84170610	    -46.42819642	     -6.68071774	     15.50647166	     26.49125414	      5.55704333	     10.84066949	     10.37368482
      3.76500000	     -9.39399428	     -9.57194617	     -5.50887482	     -1.39533280	     -0.03688593	      0.47944137	      0.89180983	     16.86814874	     21.97526566	    -14.63732930	      8.21148490	     -3.72395471	     -4.75104450	     42.68448277	    -12.16330946	     -3.00925155	    -44.55474170	     -6.09040323	     16.58713080	     26.39974018	      5.50621315	     10.82299023	     10.78298528
      3.77000000	     -9.52247101	     -9.43787739	     -5.82151266	     -1.38838788	     -0.03746111	      0.47930446	      0.48141236	     16.63718730	     22.10800261	    -14.57278031	      8.34423433	     -3.38545591	     -4.51386781	     42.85371219	    -12.14404187	     -3.15947218	    -42.62995376	     -5.51508437	     17.72264608	     26.27743084	      5.50027398	     10.78039725	     11.17333700
      3.77500000	     -9.66689586	     -9.28761579	     -6.14723954	     -1.38134985	     -0.03805776	      0.47919386	      0.09392539	     16.38716865	     22.22059986	    -14.52062537	      8.47812186	     -3.02026288	     -4.25632817	     42.99036359	    -12.11316642	     -3.28329431	    -40.66250150	     -4.95406497	     18.87971152	     26.11656735	      5.52735340	     10.71917711	     11.55057694
      3.78000000	     -9.80847934	     -9.12087543	     -6.47033779	     -1.37426386	     -0.03865421	      0.47901920	     -0.27691033	     16.10959335	     22.31811763	    -14.49898674	      8.60119808	     -2.58504117	     -3.94515612	     43.08318839	    -12.04654092	     -3.34196930	    -38.66799914	     -4.39217700	     20.03506621	     25.83441908	      5.55429978	     10.65466383	     11.97036489
      3.78500000	     -9.97689194	     -8.93979517	     -6.79817428	     -1.36702349	     -0.03930823	      0.47886128	     -0.61641885	     15.81798444	     22.38120189	    -14.48843971	      8.71761078	     -2.16234271	     -3.64878817	     43.15553051	    -11.96396519	     -3.36333278	    -36.63833380	     -3.83545027	     21.10925715	     25.57618200	      5.64430075	     10.57607352	     12.34051098
      3.79000000	    -10.12910115	     -8.74510497	     -7.12859012	     -1.35977270	     -0.03993174	      0.47869355	     -0.95092250	     15.50265143	     22.41493168	    -14.50483264	      8.83781996	     -1.64052463	     -3.27478451	     43.17917632	    -11.85913797	     -3.30435986	    -34.60652964	     -3.34212977	     22.12983151	     25.13777235	      5.71349309	     10.48157454	     12.73967987
      3.79500000	    -10.30159488	     -8.53723336	     -7.45541382	     -1.35236538	     -0.04060622	      0.47851285	     -1.25743606	     15.17204287	     22.40876064	    -14.53644130	      8.94042576	     -1.12568526	     -2.91201279	     43.18161851	    -11.73087476	     -3.18264941	    -32.55942150	     -2.86551448	     22.98789212	     24.70086675	      5.83829887	     10.37916991	     13.10642664
      3.80000000	    -10.46087358	     -8.32154676	     -7.77187474	     -1.34492490	     -0.04127329	      0.47830258	     -1.55525727	     14.82418103	     22.35920794	    -14.59558309	      9.04077802	     -0.52740735	     -2.48927683	     43.14560251	    -11.57653804	     -2.95394407	    -30.52717780	     -2.47258551	     23.68148417	     24.12893963	      5.95301188	     10.26694514	     13.47441543
      3.80500000	    -10.62402606	     -8.10168315	     -8.07281489	     -1.33740452	     -0.04196200	      0.47807241	     -1.83502689	     14.46942477	     22.27961141	    -14.67359353	      9.11869882	      0.08392397	     -2.05733852	     43.08809424	    -11.40063720	     -2.61830544	    -28.50751268	     -2.17587629	     24.15792027	     23.53243279	      6.09123388	     10.15039701	     13.81388115
      3.81000000	    -10.78419522	     -7.87533013	     -8.36547334	     -1.32980918	     -0.04265132	      0.47785051	     -2.10501360	     14.10657355	     22.18558198	    -14.77223254	      9.16432974	      0.69716191	     -1.64644096	     42.99759002	    -11.21253413	     -2.18175385	    -26.50194016	     -1.98829172	     24.40265398	     22.99351774	      6.23950967	     10.02268256	     14.14251857
      3.81500000	    -10.92365203	     -7.64393334	     -8.63479212	     -1.32218897	     -0.04332189	      0.47761654	     -2.36886765	     13.73230820	     22.02539123	    -14.90434699	      9.19995910	      1.38339473	     -1.18804411	     42.87266123	    -11.00996891	     -1.65737363	    -24.54586128	     -1.88970528	     24.44585758	     22.46068686	      6.37237348	      9.88063848	     14.44689097
      3.82000000	    -11.06402911	     -7.39646777	     -8.87982936	     -1.31454637	     -0.04398603	      0.47739129	     -2.60381420	     13.34003227	     21.81369830	    -15.06581178	      9.22488812	      2.13200045	     -0.67445595	     42.74811682	    -10.79099956	     -1.07724620	    -22.66883576	     -1.88592963	     24.29251957	     21.91333718	      6.51678905	      9.70821275	     14.71727698
      3.82500000	    -11.22975510	     -7.15029118	     -9.13304543	     -1.30687428	     -0.04468535	      0.47720076	     -2.78769402	     12.95806862	     21.59318726	    -15.27007161	      9.21212487	      2.87006945	     -0.18577754	     42.65651098	    -10.59624937	     -0.48278805	    -20.90905288	     -1.89034144	     23.94571520	     21.35861700	      6.69878768	      9.54028709	     14.98915331
      3.83000000	    -11.41497250	     -6.91069186	     -9.36896766	     -1.29922371	     -0.04541393	      0.47703688	     -2.92061887	     12.59239291	     21.34917870	    -15.51859939	      9.17823939	      3.63861848	      0.31047430	     42.61884020	    -10.42233431	      0.10436219	    -19.31082863	     -1.90848939	     23.52259532	     20.75434220	      6.89904822	      9.37035707	     15.23830025
      3.83500000	    -11.67578357	     -6.65614923	     -9.64675444	     -1.29159334	     -0.04621439	      0.47702173	     -2.95376179	     12.25054965	     21.27188598	    -15.82451057	      9.07669811	      4.22451855	      0.62939401	     42.70060663	    -10.31564706	      0.49146276	    -17.90103642	     -1.92297633	     23.18442345	     20.19361071	      7.18191043	      9.18803425	     15.53231515
      3.84000000	    -11.88752208	     -6.45195019	     -9.85336139	     -1.28393921	     -0.04703444	      0.47684608	     -2.99704072	     11.92953963	     20.91620619	    -16.17222628	      9.02735274	      5.12472011	      1.15132430	     42.76872727	    -10.19052575	      1.02378529	    -16.68560206	     -1.88913586	     22.66677012	     19.42378377	      7.41207235	      9.04447688	     15.75567216
      3.84500000	    -12.06221488	     -6.30780068	     -9.95682040	     -1.27614647	     -0.04791390	      0.47654891	     -3.08491673	     11.64998238	     20.40020862	    -16.49663825	      8.91792015	      6.10907884	      1.84468035	     42.86672575	    -10.06900511	      1.48209374	    -15.71236973	     -1.69879251	     22.36193499	     18.63263935	      7.62516685	      8.94079033	     15.82719881
      3.85000000	    -12.30470614	     -6.11299323	    -10.20725093	     -1.26836656	     -0.04880542	      0.47656552	     -3.09134194	     11.37799457	     20.29831129	    -16.89882077	      8.69216899	      6.67918677	      2.15880153	     43.03034969	    -10.05217028	      1.59573036	    -14.88374857	     -1.61129177	     22.16554281	     18.16531404	      7.90397780	      8.79551729	     16.08725874
      3.85500000	    -12.52061256	     -5.96574741	    -10.37710343	     -1.26043141	     -0.04975975	      0.47630946	     -3.09801734	     11.10427050	     19.87460846	    -17.31745041	      8.53862399	      7.67447734	      2.76701631	     43.20522175	     -9.99787248	      1.76369973	    -14.27336074	     -1.42137271	     21.92605883	     17.50744920	      8.17622196	      8.71855920	     16.25213080
      3.86000000	    -12.70200247	     -5.80925712	    -10.53999852	     -1.25242345	     -0.05071856	      0.47616087	     -3.12876855	     10.83874995	     19.54741622	    -17.77644884	      8.28113003	      8.45858297	      3.29063060	     43.37315149	     -9.95581922	      1.76915795	    -13.85782307	     -1.21503329	     21.89736648	     17.05691266	      8.41580190	      8.59235214	     16.39514339
      3.86500000	    -12.86400839	     -5.69199313	    -10.68522264	     -1.24424921	     -0.05170625	      0.47589733	     -3.19465375	     10.59112950	     19.22519964	    -18.21777745	      7.96261549	      9.31487435	      3.88777807	     43.55528359	     -9.92940230	      1.67051776	    -13.65858165	     -0.96665487	     21.93946969	     16.69756128	      8.65444592	      8.51898368	     16.51423034
      3.87000000	    -13.01552013	     -5.53126198	    -10.86585426	     -1.23598091	     -0.05268958	      0.47576119	     -3.23618795	     10.31820216	     18.97202458	    -18.73658958	      7.59559597	     10.01467933	      4.35513706	     43.71560723	     -9.90534777	      1.44378804	    -13.59284395	     -0.79529670	     22.04948818	     16.53058548	      8.89386963	      8.38960000	     16.68354931
      3.87500000	    -13.14533022	     -5.39582434	    -11.02407233	     -1.22754801	     -0.05370779	      0.47554573	     -3.29452108	     10.04851886	     18.64589201	    -19.26400005	      7.18835007	     10.84997131	      4.92023329	     43.88582193	     -9.88628298	      1.11588961	    -13.72830394	     -0.61375067	     22.25321541	     16.48060707	      9.13100388	      8.28784699	     16.83219074
      3.88000000	    -13.25178765	     -5.29781824	    -11.15180187	     -1.21899476	     -0.05476011	      0.47523690	     -3.37512688	      9.80587986	     18.30757808	    -19.79149501	      6.65582376	     11.65532001	      5.66626440	     44.06872904	     -9.87284785	      0.72109334	    -14.05839680	     -0.47325593	     22.49081985	     16.52430633	      9.34764868	      8.22098257	     16.92572063
